<svg width="40" height="40" viewBox="0 0 40 40" fill="none" xmlns="http://www.w3.org/2000/svg">
<path d="M26.997 28C18.466 28.012 11.991 21.46 12 13.003C12 12.45 12.448 12 13 12H15.64C16.135 12 16.556 12.364 16.629 12.854C16.8031 14.0291 17.1449 15.173 17.644 16.251L17.747 16.473C17.8162 16.6224 17.8311 16.7912 17.7891 16.9504C17.7471 17.1096 17.6509 17.2492 17.517 17.345C16.699 17.929 16.387 19.104 17.024 20.02C17.823 21.17 18.83 22.178 19.98 22.977C20.897 23.613 22.072 23.301 22.655 22.484C22.7507 22.3497 22.8904 22.2531 23.0498 22.211C23.2092 22.1688 23.3784 22.1836 23.528 22.253L23.749 22.355C24.827 22.855 25.971 23.197 27.146 23.371C27.636 23.444 28 23.865 28 24.361V27C28 27.1314 27.9741 27.2615 27.9238 27.3829C27.8735 27.5043 27.7997 27.6146 27.7068 27.7075C27.6138 27.8003 27.5034 27.874 27.382 27.9242C27.2606 27.9744 27.1304 28.0001 26.999 28H26.997Z" fill="#343A40"/>
</svg>
