<svg width="40" height="40" viewBox="0 0 40 40" fill="none" xmlns="http://www.w3.org/2000/svg">
<path d="M14 13C13.2044 13 12.4413 13.3161 11.8787 13.8787C11.3161 14.4413 11 15.2044 11 16V16.3015L20 21.148L29 16.303V16C29 15.2044 28.6839 14.4413 28.1213 13.8787C27.5587 13.3161 26.7956 13 26 13H14ZM29 18.0055L20.3555 22.66C20.2462 22.7188 20.1241 22.7496 20 22.7496C19.8759 22.7496 19.7538 22.7188 19.6445 22.66L11 18.0055V25C11 25.7956 11.3161 26.5587 11.8787 27.1213C12.4413 27.6839 13.2044 28 14 28H26C26.7956 28 27.5587 27.6839 28.1213 27.1213C28.6839 26.5587 29 25.7956 29 25V18.0055Z" fill="#343A40"/>
</svg>
