<svg width="40" height="40" viewBox="0 0 40 40" fill="none" xmlns="http://www.w3.org/2000/svg">
<path d="M21.5413 28.4326C23.8653 26.4581 28 22.4243 28 18.7226C28 16.6745 27.1571 14.7102 25.6569 13.2619C24.1566 11.8136 22.1217 11 20 11C17.8783 11 15.8434 11.8136 14.3431 13.2619C12.8429 14.7102 12 16.6745 12 18.7226C12 22.4243 16.1333 26.4581 18.4587 28.4326C18.8828 28.798 19.4315 29 20 29C20.5685 29 21.1172 28.798 21.5413 28.4326ZM17.3333 18.7226C17.3333 18.0399 17.6143 17.3851 18.1144 16.9024C18.6145 16.4196 19.2928 16.1484 20 16.1484C20.7072 16.1484 21.3855 16.4196 21.8856 16.9024C22.3857 17.3851 22.6667 18.0399 22.6667 18.7226C22.6667 19.4054 22.3857 20.0601 21.8856 20.5429C21.3855 21.0256 20.7072 21.2968 20 21.2968C19.2928 21.2968 18.6145 21.0256 18.1144 20.5429C17.6143 20.0601 17.3333 19.4054 17.3333 18.7226Z" fill="#343A40"/>
</svg>
