<svg width="38" height="38" viewBox="0 0 38 38" fill="none" xmlns="http://www.w3.org/2000/svg">
<rect width="38" height="38" rx="8" fill="white"/>
<path d="M13 12C12.2044 12 11.4413 12.3161 10.8787 12.8787C10.3161 13.4413 10 14.2044 10 15V15.3015L19 20.148L28 15.303V15C28 14.2044 27.6839 13.4413 27.1213 12.8787C26.5587 12.3161 25.7956 12 25 12H13ZM28 17.0055L19.3555 21.66C19.2462 21.7188 19.1241 21.7496 19 21.7496C18.8759 21.7496 18.7538 21.7188 18.6445 21.66L10 17.0055V24C10 24.7956 10.3161 25.5587 10.8787 26.1213C11.4413 26.6839 12.2044 27 13 27H25C25.7956 27 26.5587 26.6839 27.1213 26.1213C27.6839 25.5587 28 24.7956 28 24V17.0055Z" fill="#343A40"/>
</svg>
