<svg width="32" height="32" viewBox="0 0 32 32" fill="none" xmlns="http://www.w3.org/2000/svg">
<path d="M30.9118 9.84159C30.895 8.5793 30.6587 7.32955 30.2134 6.14826C29.8274 5.15185 29.2377 4.24693 28.4821 3.49131C27.7265 2.7357 26.8215 2.14601 25.8251 1.75993C24.659 1.32219 23.4271 1.0855 22.1818 1.05993C20.5784 0.988262 20.0701 0.968262 16.0001 0.968262C11.9301 0.968262 11.4085 0.968262 9.81678 1.05993C8.57205 1.08569 7.3407 1.32238 6.17512 1.75993C5.17855 2.14574 4.27349 2.73534 3.51784 3.49098C2.76219 4.24663 2.1726 5.15169 1.78678 6.14826C1.34817 7.31348 1.11199 8.54511 1.08845 9.78993C1.01678 11.3949 0.995117 11.9033 0.995117 15.9733C0.995117 20.0433 0.995117 20.5633 1.08845 22.1566C1.11345 23.4033 1.34845 24.6333 1.78678 25.8016C2.17325 26.7979 2.76328 27.7026 3.51918 28.4579C4.27508 29.2132 5.18022 29.8026 6.17678 30.1883C7.33917 30.6436 8.57074 30.8972 9.81845 30.9383C11.4235 31.0099 11.9318 31.0316 16.0018 31.0316C20.0718 31.0316 20.5935 31.0316 22.1851 30.9383C23.4304 30.9137 24.6624 30.6776 25.8284 30.2399C26.8246 29.8534 27.7293 29.2636 28.4849 28.508C29.2404 27.7524 29.8303 26.8477 30.2168 25.8516C30.6551 24.6849 30.8901 23.4549 30.9151 22.2066C30.9868 20.6033 31.0084 20.0949 31.0084 16.0233C31.0051 11.9533 31.0051 11.4366 30.9118 9.84159ZM15.9901 23.6699C11.7335 23.6699 8.28512 20.2216 8.28512 15.9649C8.28512 11.7083 11.7335 8.25993 15.9901 8.25993C18.0336 8.25993 19.9934 9.0717 21.4384 10.5167C22.8833 11.9616 23.6951 13.9214 23.6951 15.9649C23.6951 18.0084 22.8833 19.9682 21.4384 21.4132C19.9934 22.8582 18.0336 23.6699 15.9901 23.6699ZM24.0018 9.77159C23.7658 9.77181 23.532 9.72549 23.314 9.63528C23.0959 9.54506 22.8977 9.41273 22.7309 9.24585C22.564 9.07897 22.4316 8.88082 22.3414 8.66274C22.2512 8.44466 22.2049 8.21093 22.2051 7.97493C22.2051 7.7391 22.2516 7.50557 22.3418 7.28769C22.4321 7.06981 22.5643 6.87184 22.7311 6.70508C22.8979 6.53832 23.0958 6.40604 23.3137 6.31579C23.5316 6.22555 23.7651 6.17909 24.001 6.17909C24.2368 6.17909 24.4703 6.22555 24.6882 6.31579C24.9061 6.40604 25.104 6.53832 25.2708 6.70508C25.4376 6.87184 25.5698 7.06981 25.6601 7.28769C25.7503 7.50557 25.7968 7.7391 25.7968 7.97493C25.7968 8.96826 24.9935 9.77159 24.0018 9.77159Z" fill="white"/>
</svg>
