<svg width="38" height="38" viewBox="0 0 38 38" fill="none" xmlns="http://www.w3.org/2000/svg">
<rect width="38" height="38" rx="8" fill="white"/>
<path d="M20.5413 27.4326C22.8653 25.4581 27 21.4243 27 17.7226C27 15.6745 26.1571 13.7102 24.6569 12.2619C23.1566 10.8136 21.1217 10 19 10C16.8783 10 14.8434 10.8136 13.3431 12.2619C11.8429 13.7102 11 15.6745 11 17.7226C11 21.4243 15.1333 25.4581 17.4587 27.4326C17.8828 27.798 18.4315 28 19 28C19.5685 28 20.1172 27.798 20.5413 27.4326ZM16.3333 17.7226C16.3333 17.0399 16.6143 16.3851 17.1144 15.9024C17.6145 15.4196 18.2928 15.1484 19 15.1484C19.7072 15.1484 20.3855 15.4196 20.8856 15.9024C21.3857 16.3851 21.6667 17.0399 21.6667 17.7226C21.6667 18.4054 21.3857 19.0601 20.8856 19.5429C20.3855 20.0256 19.7072 20.2968 19 20.2968C18.2928 20.2968 17.6145 20.0256 17.1144 19.5429C16.6143 19.0601 16.3333 18.4054 16.3333 17.7226Z" fill="#343A40"/>
</svg>
