<svg width="24" height="24" viewBox="0 0 24 24" fill="none" xmlns="http://www.w3.org/2000/svg">
<path fill-rule="evenodd" clip-rule="evenodd" d="M6.12455 0H14.1485L20.9491 7.08846V20.8756C20.9491 22.6027 19.5518 24 17.8307 24H6.12455C4.39742 24 3.00012 22.6027 3.00012 20.8756V3.12443C3.00009 1.3973 4.39739 0 6.12455 0V0Z" fill="#E5252A"/>
<path opacity="0.302" fill-rule="evenodd" clip-rule="evenodd" d="M14.1427 0V7.03449H20.9493L14.1427 0Z" fill="white"/>
<path d="M6.47278 17.9072V13.5234H8.33785C8.79962 13.5234 9.16545 13.6494 9.44131 13.9072C9.71717 14.1591 9.85511 14.501 9.85511 14.9267C9.85511 15.3525 9.71717 15.6944 9.44131 15.9462C9.16545 16.2041 8.79962 16.33 8.33785 16.33H7.59422V17.9072H6.47278ZM7.59422 15.3765H8.21192C8.37982 15.3765 8.51176 15.3405 8.60173 15.2566C8.69167 15.1786 8.73967 15.0707 8.73967 14.9268C8.73967 14.7829 8.6917 14.6749 8.60173 14.5969C8.51179 14.513 8.37985 14.477 8.21192 14.477H7.59422V15.3765ZM10.3169 17.9072V13.5234H11.8701C12.1759 13.5234 12.4638 13.5654 12.7336 13.6554C13.0035 13.7453 13.2494 13.8713 13.4653 14.0452C13.6812 14.2131 13.8551 14.441 13.981 14.7288C14.1009 15.0167 14.1669 15.3465 14.1669 15.7183C14.1669 16.0842 14.101 16.414 13.981 16.7018C13.8551 16.9897 13.6812 17.2176 13.4653 17.3855C13.2494 17.5594 13.0035 17.6853 12.7336 17.7753C12.4638 17.8652 12.1759 17.9072 11.8701 17.9072H10.3169ZM11.4143 16.9537H11.7381C11.912 16.9537 12.074 16.9358 12.2239 16.8938C12.3678 16.8518 12.5058 16.7858 12.6377 16.6959C12.7636 16.6059 12.8656 16.48 12.9375 16.3121C13.0095 16.1442 13.0455 15.9462 13.0455 15.7183C13.0455 15.4845 13.0095 15.2866 12.9375 15.1187C12.8656 14.9508 12.7636 14.8248 12.6377 14.7348C12.5058 14.6449 12.3678 14.5789 12.2239 14.537C12.074 14.495 11.912 14.477 11.7381 14.477H11.4143V16.9537ZM14.7307 17.9072V13.5234H17.8491V14.477H15.8521V15.1786H17.4473V16.1261H15.8521V17.9072H14.7307Z" fill="white"/>
</svg>
