<svg width="38" height="38" viewBox="0 0 38 38" fill="none" xmlns="http://www.w3.org/2000/svg">
<rect width="38" height="38" rx="8" fill="white"/>
<path d="M25.997 27C17.466 27.012 10.991 20.46 11 12.003C11 11.45 11.448 11 12 11H14.64C15.135 11 15.556 11.364 15.629 11.854C15.8031 13.0291 16.1449 14.173 16.644 15.251L16.747 15.473C16.8162 15.6224 16.8311 15.7912 16.7891 15.9504C16.7471 16.1096 16.6509 16.2492 16.517 16.345C15.699 16.929 15.387 18.104 16.024 19.02C16.823 20.17 17.83 21.178 18.98 21.977C19.897 22.613 21.072 22.301 21.655 21.484C21.7507 21.3497 21.8904 21.2531 22.0498 21.211C22.2092 21.1688 22.3784 21.1836 22.528 21.253L22.749 21.355C23.827 21.855 24.971 22.197 26.146 22.371C26.636 22.444 27 22.865 27 23.361V26C27 26.1314 26.9741 26.2615 26.9238 26.3829C26.8735 26.5043 26.7997 26.6146 26.7068 26.7075C26.6138 26.8003 26.5034 26.874 26.382 26.9242C26.2606 26.9744 26.1304 27.0001 25.999 27H25.997Z" fill="#343A40"/>
</svg>
